<svg width="20" height="22" viewBox="0 0 20 22" fill="none" xmlns="http://www.w3.org/2000/svg">
<path d="M9.98857 22L3.09727 15.5563C1.73432 14.2819 0.806146 12.6581 0.430116 10.8905C0.0540849 9.12277 0.247089 7.29051 0.984723 5.62539C1.72236 3.96027 2.97149 2.53707 4.57416 1.53576C6.17683 0.534448 8.06106 0 9.98857 0C11.9161 0 13.8003 0.534448 15.403 1.53576C17.0057 2.53707 18.2548 3.96027 18.9924 5.62539C19.7301 7.29051 19.9231 9.12277 19.547 10.8905C19.171 12.6581 18.2428 14.2819 16.8799 15.5563L9.98857 22ZM15.3487 14.1246C16.4087 13.1333 17.1306 11.8704 17.423 10.4956C17.7154 9.12075 17.5652 7.69569 16.9915 6.40064C16.4178 5.10558 15.4462 3.99868 14.1997 3.21991C12.9532 2.44114 11.4877 2.02548 9.98857 2.02548C8.48942 2.02548 7.02394 2.44114 5.77743 3.21991C4.53093 3.99868 3.55938 5.10558 2.98564 6.40064C2.41191 7.69569 2.26175 9.12075 2.55417 10.4956C2.84658 11.8704 3.56843 13.1333 4.62843 14.1246L9.98857 19.1366L15.3487 14.1246ZM9.98857 11.1377C9.41419 11.1377 8.86333 10.9243 8.45718 10.5445C8.05103 10.1648 7.82286 9.64969 7.82286 9.11262C7.82286 8.57554 8.05103 8.06047 8.45718 7.6807C8.86333 7.30093 9.41419 7.08757 9.98857 7.08757C10.563 7.08757 11.1138 7.30093 11.52 7.6807C11.9261 8.06047 12.1543 8.57554 12.1543 9.11262C12.1543 9.64969 11.9261 10.1648 11.52 10.5445C11.1138 10.9243 10.563 11.1377 9.98857 11.1377Z" fill="#101010"/>
</svg>
